<svg xmlns="http://www.w3.org/2000/svg" viewBox="0 0 1200 760" role="img" aria-labelledby="title desc">
  <title id="title">Placeholder capture portail admin</title>
  <desc id="desc">Visuel de demonstration pour remplacer une capture d'ecran.</desc>
  <rect width="1200" height="760" fill="#f7f9fc"/>
  <rect x="48" y="52" width="1104" height="656" rx="18" fill="#ffffff" stroke="#d9e0ea" stroke-width="4"/>
  <rect x="48" y="52" width="1104" height="76" rx="18" fill="#172033"/>
  <circle cx="91" cy="90" r="12" fill="#b53636"/>
  <circle cx="128" cy="90" r="12" fill="#b85712"/>
  <circle cx="165" cy="90" r="12" fill="#247a52"/>
  <rect x="92" y="174" width="248" height="470" rx="12" fill="#e9f0f8"/>
  <rect x="382" y="174" width="300" height="178" rx="12" fill="#edf7fa" stroke="#008aa8" stroke-width="3"/>
  <rect x="718" y="174" width="338" height="178" rx="12" fill="#eef4ff" stroke="#1457b8" stroke-width="3"/>
  <rect x="382" y="390" width="674" height="254" rx="12" fill="#ffffff" stroke="#d9e0ea" stroke-width="3"/>
  <g fill="#5e6a7d">
    <rect x="120" y="216" width="168" height="20" rx="10"/>
    <rect x="120" y="270" width="184" height="20" rx="10"/>
    <rect x="120" y="324" width="132" height="20" rx="10"/>
    <rect x="420" y="430" width="590" height="18" rx="9"/>
    <rect x="420" y="486" width="515" height="18" rx="9"/>
    <rect x="420" y="542" width="560" height="18" rx="9"/>
  </g>
  <text x="532" y="278" fill="#008aa8" font-family="Segoe UI, Arial, sans-serif" font-size="34" font-weight="700" text-anchor="middle">Capture</text>
  <text x="887" y="278" fill="#1457b8" font-family="Segoe UI, Arial, sans-serif" font-size="34" font-weight="700" text-anchor="middle">Portail admin</text>
</svg>
